<svg width="268" height="34" viewBox="0 0 268 34" fill="none" xmlns="http://www.w3.org/2000/svg">
<path d="M19 7.48H6.46V13.86H15.92V19.14H6.46V33H0.52V2.2H19V7.48ZM27.1194 11.66V33H21.3994V11.66H27.1194ZM20.5194 4.092C20.5194 2.024 22.1914 0.44 24.2594 0.44C26.3274 0.44 27.9994 2.024 27.9994 4.092C27.9994 6.16 26.3274 7.744 24.2594 7.744C22.1914 7.744 20.5194 6.16 20.5194 4.092ZM45.6114 11.396L44.9514 16.72C44.5554 16.588 43.7194 16.5 42.8834 16.5C40.3754 16.5 38.3954 18.304 37.6914 19.58V33H31.9714V11.66H37.4714V13.816C38.7474 12.232 41.0794 11.22 43.6754 11.22C44.5114 11.22 44.9954 11.308 45.6114 11.396ZM45.9314 30.58L48.7034 26.488C50.1554 27.808 52.3994 28.6 54.5554 28.6C56.0954 28.6 57.2834 27.852 57.2834 26.796C57.2834 23.584 46.9434 24.728 46.9434 17.864C46.9434 13.772 50.9034 11.22 55.1274 11.22C57.8994 11.22 60.9354 12.276 62.3434 13.376L59.6594 17.512C58.5594 16.72 57.1074 16.06 55.5674 16.06C53.9834 16.06 52.6634 16.676 52.6634 17.776C52.6634 20.548 63.0034 19.448 63.0034 26.84C63.0034 30.932 58.9994 33.44 54.5114 33.44C51.5634 33.44 48.4394 32.428 45.9314 30.58ZM80.8423 28.16L81.7223 33C80.9743 33.264 79.2583 33.44 78.1583 33.44C74.7263 33.44 72.2183 32.296 70.7663 30.36C69.6663 28.908 69.1823 27.016 69.1823 23.98V16.5H63.2423V11.66H69.1823V5.72H74.9023V11.66H81.9423V16.5H74.9023V24.64C74.9023 25.96 75.1223 26.752 75.6063 27.324C76.1783 27.984 77.1023 28.38 78.5103 28.38C79.3463 28.38 80.4463 28.248 80.8423 28.16ZM90.0875 2.2L101.307 20.636L112.527 2.2H116.707V33H110.767V15.84L103.375 27.94H99.2395L91.8475 15.84V33H85.9075V2.2H90.0875ZM120.023 22.352C120.023 16.192 124.907 11.22 131.375 11.22C137.843 11.22 142.727 16.192 142.727 22.352C142.727 28.512 137.843 33.44 131.375 33.44C124.907 33.44 120.023 28.512 120.023 22.352ZM125.743 22.352C125.743 25.564 128.031 28.16 131.375 28.16C134.719 28.16 137.007 25.564 137.007 22.352C137.007 19.14 134.719 16.5 131.375 16.5C128.031 16.5 125.743 19.14 125.743 22.352ZM148.24 11.66L154.092 24.684L159.944 11.66H165.884L156.072 33H152.112L142.3 11.66H148.24ZM182.12 26.356L185.376 29.612C183.308 32.076 179.92 33.44 176.62 33.44C170.24 33.44 165.444 29.04 165.444 22.352C165.444 16.412 169.492 11.22 175.828 11.22C181.724 11.22 185.904 16.192 185.904 22.132C185.904 22.704 185.86 23.276 185.772 23.76H170.988C171.296 26.752 173.716 28.82 176.752 28.82C179.172 28.82 181.108 27.456 182.12 26.356ZM171.252 19.58H180.052C179.876 17.688 178.16 15.84 175.828 15.84C173.452 15.84 171.516 17.644 171.252 19.58Z" fill="#006DE9"/>
<path d="M189.644 33V2.19141H194.049V33H189.644ZM200.002 33V12.3105H204.041V14.3086C204.599 13.7786 205.401 13.2415 206.447 12.6973C207.492 12.153 208.76 11.8809 210.25 11.8809C211.768 11.8809 213.179 12.2103 214.482 12.8691C215.8 13.528 216.895 14.416 217.769 15.5332C218.442 16.3783 218.951 17.3665 219.295 18.498C219.638 19.6296 219.81 21.0905 219.81 22.8809V33H215.621V22.666C215.621 21.3483 215.506 20.3385 215.277 19.6367C215.062 18.9206 214.768 18.3262 214.396 17.8535C213.895 17.2376 213.272 16.7507 212.527 16.3926C211.782 16.0202 210.98 15.834 210.121 15.834C208.746 15.834 207.564 16.1348 206.576 16.7363C205.602 17.3379 204.807 18.0182 204.191 18.7773V33H200.002ZM221.788 16.0703V12.3105H227.074V6.5957H231.263V12.3105H237.859V16.0703H231.263V25.7383C231.263 26.2969 231.299 26.7982 231.37 27.2422C231.442 27.6719 231.607 28.0514 231.865 28.3809C232.151 28.7389 232.559 29.0111 233.089 29.1973C233.633 29.3835 234.185 29.4766 234.744 29.4766C235.073 29.4766 235.452 29.4551 235.882 29.4121C236.326 29.3691 236.706 29.3047 237.021 29.2188L237.859 33C237.443 33.1432 236.942 33.2507 236.355 33.3223C235.768 33.3939 235.18 33.4297 234.593 33.4297C233.275 33.4297 232.137 33.222 231.177 32.8066C230.232 32.377 229.423 31.7826 228.749 31.0234C228.133 30.3503 227.697 29.5482 227.439 28.6172C227.195 27.6719 227.074 26.6406 227.074 25.5234V16.0703H221.788ZM239.364 22.666C239.364 21.1048 239.615 19.6654 240.116 18.3477C240.618 17.0299 241.312 15.8984 242.2 14.9531C243.103 13.9935 244.17 13.2415 245.401 12.6973C246.633 12.153 247.98 11.8809 249.441 11.8809C250.873 11.8809 252.198 12.153 253.415 12.6973C254.633 13.2415 255.678 14.0007 256.552 14.9746C257.44 15.9342 258.135 17.0729 258.636 18.3906C259.137 19.7083 259.388 21.1335 259.388 22.666C259.388 22.752 259.388 22.8665 259.388 23.0098C259.388 23.153 259.373 23.332 259.345 23.5469H243.425C243.482 24.4206 243.69 25.237 244.048 25.9961C244.42 26.7409 244.9 27.3997 245.487 27.9727C246.075 28.5312 246.762 28.9753 247.55 29.3047C248.338 29.6198 249.19 29.7773 250.107 29.7773C251.625 29.7773 252.842 29.4837 253.759 28.8965C254.69 28.2949 255.449 27.6504 256.036 26.9629L258.765 29.5625C258.006 30.5651 256.888 31.4603 255.413 32.248C253.952 33.0358 252.169 33.4297 250.064 33.4297C248.574 33.4297 247.17 33.1647 245.853 32.6348C244.549 32.0905 243.411 31.3457 242.437 30.4004C241.477 29.4408 240.725 28.3021 240.181 26.9844C239.637 25.6523 239.364 24.2129 239.364 22.666ZM243.769 20.0234H255.026C254.883 19.3789 254.625 18.7773 254.253 18.2188C253.895 17.6602 253.472 17.1875 252.985 16.8008C252.498 16.3997 251.961 16.0918 251.374 15.877C250.787 15.6478 250.185 15.5332 249.569 15.5332C248.223 15.5332 247.006 15.9486 245.917 16.7793C244.843 17.5957 244.127 18.6771 243.769 20.0234ZM263.343 33V1.76172H267.532V33H263.343Z" fill="#006DE9"/>
</svg>
